<svg version="1.1" id="Layer_1" xmlns="http://www.w3.org/2000/svg" xmlns:xlink="http://www.w3.org/1999/xlink" x="0px" y="0px"
     width="106.5px" height="123.75px" viewBox="0 0 106.5 123.75" enable-background="new 0 0 106.5 123.75" xml:space="preserve">
    <g>
        <path d="M5.906,1.356C5.831,1.01,6.064,0.973,6.313,0.95
                 c21.945,0.262,44.946-0.53,66.219,0.406c1.868,0.936,3.73,1.817,5.281,2.844C82.041,7,86.151,11.727,90,15.575
                 c2.641,2.641,5.078,5.484,7.719,8.125c2.726,2.726,5.605,5.157,6.906,8.938c1.362,6.916,0.813,14.31,0.813,21.938
                 c0,18.101,0,37.403,0,56.062c0,3.365,0.543,6.891-1.219,9.75c-2.551,2.998-6.682,2.438-10.563,2.438c-25.871,0-51.382,0-78,0
                 c-4.536,0-9.612,0.29-11.781-1.219c-2.784-1.936-2.844-6.619-2.844-13c0-31.304-0.177-62.309,0-95.062
                 C1.068,6.659,0.886,2.661,5.906,1.356z M9.969,10.7c0,34.531,0,69.062,0,103.593c28.979,0,57.958,0,86.938,0
                 c0-23.291,0-46.583,0-69.875c-5.002,0-10.47,0-15.844,0c-5.447,0-11.023,0.587-15.438-0.813c-1.119-0.777-2.067-1.725-2.844-2.844
                 c-1.738-8.96-0.385-21.012-0.813-31.281c-17.198,0-34.396,0-51.594,0C9.901,9.549,9.934,10.123,9.969,10.7z M70.906,35.887
                 c8.396,0,16.791,0,25.188,0c-0.293-3.249-3.281-4.906-5.281-6.906c-6.342-6.342-12.193-12.773-18.688-18.688
                 c-0.406,0-0.813,0-1.219,0C70.906,18.825,70.906,27.356,70.906,35.887z"/>
    </g>
</svg>
